<svg xmlns="http://www.w3.org/2000/svg" viewBox="0 0 60 40" width="18" height="14">
  <clipPath id="s">
    <path d="M0,0 v40 h60 v-40 z"/>
  </clipPath>
  <clipPath id="t">
    <path d="M30,20 L60,40 H0 z M30,20 L60,0 H0 z M30,20 L60,40 V0 z M30,20 L0,40 V0 z"/>
  </clipPath>
  <g clip-path="url(#s)">
    <path d="M0,0 h60 v40 h-60 z" fill="#012169"/>
    <path d="M0,0 L60,40 M60,0 L0,40" stroke="#ffffff" stroke-width="12"/>
    <path d="M0,0 L60,40 M60,0 L0,40" stroke="#C8102E" stroke-width="4" clip-path="url(#t)"/>
    <path d="M30,0 v40 M0,20 h60" stroke="#ffffff" stroke-width="20"/>
    <path d="M30,0 v40 M0,20 h60" stroke="#C8102E" stroke-width="12"/>
  </g>
</svg>
